<?xml version="1.0" encoding="utf-8"?>
<!-- Generator: Adobe Illustrator 24.3.0, SVG Export Plug-In . SVG Version: 6.00 Build 0)  -->
<svg version="1.1" id="Layer_1" xmlns="http://www.w3.org/2000/svg" xmlns:xlink="http://www.w3.org/1999/xlink" x="0px" y="0px"
	 viewBox="0 0 813.9 300" enable-background="new 0 0 813.9 300" xml:space="preserve">
<g>
	<path fill="#E5E4D6" d="M321.1,235.7c-17.6,0-31.9,14.3-31.9,31.9V300h63.8v-32.4C353.1,250,338.8,235.7,321.1,235.7z"/>
	<polygon fill="#E5E4D6" points="495.4,61.7 462.1,77.5 449.7,42.8 437.3,77.5 404,61.7 419.9,95 385.5,107.2 419.9,119.5 
		404,152.8 437.3,136.9 449.7,171.6 449.7,171.6 449.7,171.6 462.1,136.9 495.4,152.8 479.5,119.5 513.9,107.3 513.9,107.2 
		513.9,107.2 513.9,107.2 479.5,95 	"/>
	<path fill="#E5E4D6" d="M449.8,0l64.2,64.2h0v43.1h64.2c-17.7,0-32.1-14.4-32.1-32.1c0-17.7,14.4-32.1,32.1-32.1
		c17.7,0,32.1,14.4,32.1,32.1c0,17.7-14.4,32.1-32.1,32.1h64.1v-43h0L578.1,0.1L514,64.2L514,0H449.8z"/>
	<path fill="#E5E4D6" d="M321.1,171.6L257,107.5h128.4V64.2L449.6,0H128.3l0,64.2L64.1,0.1L0,64.2v171.5h64.2
		c-17.7,0-32.1-14.4-32.1-32.1c0-17.7,14.4-32.1,32.1-32.1s32.1,14.4,32.1,32.1c0,17.7-14.4,32.1-32.1,32.1h64.2L64.2,300L0,235.8
		V300h256.9v-64.2L321.1,171.6z M96,128.5H32.2V93.1c0-16,13-29,29-29H67c16,0,29,13,29,29V128.5z M342.5,0h42.8v64.2h-42.8V0z
		 M256.9,0h42.8v64.2h-42.8V0z M192.6,300c-17.7,0-32.1-14.4-32.1-32.1s14.4-32.1,32.1-32.1s32.1,14.4,32.1,32.1
		S210.3,300,192.6,300z M256.8,171.6l0,64.2l-64.1-64.1l-64.1,64.1l0-64.2h64h0.1l-64.1-64.1h64.2c-17.7,0-32.1-14.4-32.1-32.1
		c0-17.7,14.4-32.1,32.1-32.1s32.1,14.4,32.1,32.1c0,17.7-14.4,32.1-32.1,32.1H257l-64.1,64.1H256.8z"/>
	<path fill="#E5E4D6" d="M642.3,0l0,64.2H685v171.5h-42.8V107.3l-64.1,64.1l-64.2-64.2v64.4h-0.2l0,64.2l-64.1-64.1l-64.1,64.1
		l0-64.2h-0.1v-64.1l-64.2,64.2l64.1,64.1h0V300h32.2v-35.2c0-16,13-29,29-29h5.8c16,0,29,13,29,29V300h204.1v-64.2h42.8V300h42.8
		v-64.2h42.8V0H642.3z M578.1,300l-64.2-64.2h64.2c-17.7,0-32.1-14.4-32.1-32.1c0-17.7,14.4-32.1,32.1-32.1
		c17.7,0,32.1,14.4,32.1,32.1c0,17.7-14.4,32.1-32.1,32.1h64.2L578.1,300z M685.5,64.2V0h42.8v64.2H685.5z M771,235.8h-42.8v-64.2
		H771V235.8z M771.2,128.4h-42.8V64.3h42.8V128.4z M813.8,64.2H771V0h42.8V64.2z"/>
</g>
</svg>
