<?xml version="1.0" encoding="utf-8"?>
<!-- Generator: Adobe Illustrator 24.3.0, SVG Export Plug-In . SVG Version: 6.00 Build 0)  -->
<svg version="1.1" id="Layer_1" xmlns="http://www.w3.org/2000/svg" xmlns:xlink="http://www.w3.org/1999/xlink" x="0px" y="0px"
	 viewBox="0 0 300 300" enable-background="new 0 0 300 300" xml:space="preserve">
<g>
	<path fill="#E5E4D6" d="M150.1,100.5c-3.4,26.1-24,46.9-50,50.3c26,3.4,46.6,24.1,50,50.2l0,0l0,0c3.4-26.1,24-46.8,49.9-50.2l0,0
		h0.1C174.1,147.3,153.4,126.6,150.1,100.5z"/>
	<path fill="#E5E4D6" d="M300,50.2V0h-33.2v50.2h-33.3V0H200l0,50.2L150.1,0l-49.9,50.2l0-50.2H50.1l50,50.2h0v50.2H74.9V75.1
		c0-13.8-11.1-25-24.8-25c-13.7,0-24.8,11.2-24.8,25v25.3H0V50.2L50,0H0v201.1h33.3v50.2H0V300h33.4v-48.7h33.3V300h33.3v-48.8
		L150,201h-49.9V100.5h25.2V75.1c0-13.8,11.1-25,24.8-25c13.7,0,24.8,11.2,24.8,25v25.3h25.2v50.3H300L250,201h0.2H300l0,50.3V100.5
		h-33.3V50.2H300z M99.9,251.3H66.6v-50.2h33.3V251.3z M50,201L0,150.7h50c-13.8,0-25-11.3-25-25.1s11.2-25.1,25-25.1
		s25,11.3,25,25.1s-11.2,25.1-25,25.1h50L50,201z M233.4,100.5h-33.3V50.2h33.3V100.5z"/>
	<path fill="#E5E4D6" d="M200.1,251.3l0-50.3H250l0,0l-49.9-50.2V201h-49.9L200.1,251.3L200.1,251.3l-0.1,48.7h25.2v-26.1
		c0-12.5,10.1-22.7,22.6-22.7h4.5c12.5,0,22.6,10.2,22.6,22.7V300H300v-48.7l-49.9-50.2L200.1,251.3z"/>
	<path fill="#E5E4D6" d="M150.1,251.1c-13.7,0-24.8,11.2-24.8,25V300h49.7v-23.9C174.9,262.3,163.8,251.1,150.1,251.1z"/>
</g>
</svg>
