<?xml version="1.0" encoding="utf-8"?>
<!-- Generator: Adobe Illustrator 24.3.0, SVG Export Plug-In . SVG Version: 6.00 Build 0)  -->
<svg version="1.1" id="Layer_1" xmlns="http://www.w3.org/2000/svg" xmlns:xlink="http://www.w3.org/1999/xlink" x="0px" y="0px"
	 viewBox="0 0 100 86" enable-background="new 0 0 100 86" xml:space="preserve">
<g>
	<defs>
		<path id="SVGID_1_" d="M65.2,20.2l-1,2.9c0,0.1-0.1,0.1-0.2,0.1l-2.8-1.4c-0.1-0.1-0.2,0.1-0.2,0.2l1.4,2.8c0,0.1,0,0.2-0.1,0.2
			l-2.9,1c-0.1,0-0.1,0.2,0,0.2l2.9,1c0.1,0,0.1,0.1,0.1,0.2l-1.4,2.8c-0.1,0.1,0.1,0.2,0.2,0.2L64,29c0.1,0,0.2,0,0.2,0.1l1,2.9
			c0,0.1,0.2,0.1,0.2,0l1-2.9c0-0.1,0.1-0.1,0.2-0.1l2.8,1.4c0.1,0.1,0.2-0.1,0.2-0.2l-1.4-2.8c0-0.1,0-0.2,0.1-0.2l2.9-1
			c0.1,0,0.1-0.2,0-0.2l-2.9-1c-0.1,0-0.1-0.1-0.1-0.2l1.4-2.8c0.1-0.1-0.1-0.2-0.2-0.2l-2.8,1.4c-0.1,0-0.2,0-0.2-0.1l-1-2.9
			c0-0.1-0.1-0.1-0.1-0.1C65.3,20.1,65.2,20.1,65.2,20.2 M28.7,51.9c0,0,4-6.6,6.9-12.2c2.9-5.7,4.2-9.6,4.2-9.6
			c0.1-0.2,0.3-0.2,0.5-0.1l5.6,6.2c0.2,0.3,0.4,0.6,0.4,1L47,51.9c0,0.1-0.1,0.2-0.2,0.2H28.9C28.7,52.1,28.6,52,28.7,51.9
			 M53,33.8l-2.8-3.2l-3.6-7.8c-0.1-0.2,0-0.4,0.1-0.5l2.6-1.7c0.2-0.2,0.6,0,0.5,0.3c0,0.9,0,1.9,0,3.3c0,0.7,0.2,1.9,0.6,2.6
			l2.8,6.3c0.1,0.2,0.1,0.3,0.2,0.5c0,0.2-0.1,0.3-0.2,0.3C53.1,33.8,53.1,33.8,53,33.8 M58.9,0.6l-1.2,2.1c0,0.1-0.2,0.1-0.2,0.1
			l-3.1-1.8c-0.1-0.1-0.2,0-0.2,0.1c-0.9,1.6-0.3,3.7,1.3,4.6l0.1,0.1c0.1,0.1,0.1,0.2,0,0.2L54,8c-0.2,0.3-0.6,0.4-0.9,0.2L49.8,6
			c-1.2-0.8-2.7-1-4-0.7l-8,2.1c-0.4,0.1-0.9,0.4-1.2,0.6c-1.7,1.3-2.1,2.9-2.2,3.4c0,0.1,0.1,0.2,0.2,0.2h3.1
			c0.9,0,1.9-0.2,2.7-0.5c0.6-0.2,1.7-0.7,2.3-0.9c1-0.4,2.3-0.6,3.1,0.3l-5.4,2.3c-0.3,0.1-0.4,0.4-0.3,0.7l4.7,9.3
			c0.4,0.8,0.6,1.6,0.5,2.5l-0.4,2.6l16.1,18.4c0.1,0.2,0.1,0.4,0,0.6l-1.8,1.6c-0.2,0.2-0.2,0.4,0,0.6l2.4,2.6
			c0.1,0.1,0.1,0.1,0.2,0.2c0.1,0.1,0,0.4-0.2,0.4h-8.7c-0.2,0-0.3-0.1-0.3-0.3l0.1-12.3c0-0.3-0.1-0.6-0.3-0.8L38.7,23.8
			c-0.7-0.8-1-1.8-0.9-2.9c0-0.2,0.3-0.3,0.4-0.1l3.7,3.9c0.1,0.2,0.4,0.1,0.4-0.1l0-0.6c0.1-0.5-0.1-1-0.4-1.4l-4.9-6.9
			c-0.1-0.2-0.4-0.1-0.5,0.1L22.5,54.9c0,0.1,0,0.3,0.2,0.3h54.5c0.2,0,0.3-0.1,0.3-0.3v-2.4c0-0.2-0.1-0.3-0.3-0.3h-7.5
			c0,0,0,0,0,0c0.4-2.2-0.2-4.5-1.8-6.3l-2.4-2.6c-0.2-0.2-0.4-0.2-0.6,0l-1.8,1.6c-0.2,0.2-0.4,0.1-0.6,0l-6.2-7.1
			c-0.2-0.2-0.3-0.5-0.2-0.8l0.4-1.4c0.2-0.7,0-1.6-0.1-2.2c0,0-1.8-7.6-1.8-7.6c-0.1-0.4-0.1-0.8,0-1.2c0,0,1.4-3.8,1.7-9.7l0,0
			c0-0.4,0-0.8,0-1.2c0-0.9,0.8-1.1,1.2-1.2c0.1,0,0.2,0,0.3,0.1l0.9,0.6c0.3,0.2,0.7,0.1,0.9-0.1l2.8-3c0.1-0.1,0.1-0.1,0.2,0
			l1.5,0.9c1.6,0.9,3.6,0.4,4.6-1.2c0-0.1,0-0.2-0.1-0.2l-4-2.4c-0.1,0-0.1-0.1-0.1-0.2l0.2-2.6c0-0.4-0.2-0.8-0.5-1l-4.4-2.8
			c-0.1-0.1-0.2-0.1-0.3-0.1C59.2,0.3,59,0.4,58.9,0.6"/>
	</defs>
	<clipPath id="SVGID_2_">
		<use xlink:href="#SVGID_1_"  overflow="visible"/>
	</clipPath>
	<linearGradient id="SVGID_3_" gradientUnits="userSpaceOnUse" x1="24.7347" y1="60.3892" x2="85.1885" y2="18.7782">
		<stop  offset="0" style="stop-color:#C58A63"/>
		<stop  offset="1" style="stop-color:#603522"/>
	</linearGradient>
	<rect clip-path="url(#SVGID_2_)" fill="url(#SVGID_3_)" width="100" height="86"/>
</g>
<g>
	<defs>
		<path id="SVGID_4_" d="M7.4,75.8c-0.1,0-0.2,0.2-0.1,0.3l0.6,0.5c0,0,0,0.1,0,0.1V80c0,0.1-0.1,0.2-0.2,0.2H3.1
			C3.1,80.2,3,80.1,3,80v-3.3c0,0,0-0.1,0-0.1l0.6-0.5c0.1-0.1,0-0.3-0.1-0.3H0.2C0,75.8-0.1,76,0,76.1l0.6,0.5c0,0,0,0.1,0,0.1v8.2
			c0,0,0,0.1,0,0.1L0,85.6c-0.1,0.1,0,0.3,0.1,0.3h3.3c0.1,0,0.2-0.2,0.1-0.3L3,85c0,0,0-0.1,0-0.1v-3.8C3,81,3.1,81,3.1,81h4.6
			c0.1,0,0.2,0.1,0.2,0.2v3.8c0,0,0,0.1,0,0.1l-0.6,0.5c-0.1,0.1,0,0.3,0.1,0.3h3.3c0.1,0,0.2-0.2,0.1-0.3L10.3,85c0,0,0-0.1,0-0.1
			v-8.2c0,0,0-0.1,0-0.1l0.6-0.5c0.1-0.1,0-0.3-0.1-0.3H7.4z M16.1,75.8c-0.1,0-0.2,0.2-0.1,0.3l0.6,0.5c0,0,0,0.1,0,0.1v8.2
			c0,0,0,0.1,0,0.1L16,85.6c-0.1,0.1,0,0.3,0.1,0.3h7.5c0.1,0,0.2-0.1,0.2-0.2v-0.6l0,0v-1.6c0-0.2-0.2-0.2-0.3-0.1L22.3,85
			c0,0-0.1,0.1-0.1,0.1h-3.1c-0.1,0-0.2-0.1-0.2-0.2v-3.7c0-0.1,0.1-0.2,0.2-0.2h1.8c0,0,0.1,0,0.1,0.1l0.8,0.9
			c0.1,0.1,0.3,0,0.3-0.1v-2.6c0-0.1-0.2-0.2-0.3-0.1l-0.8,1c0,0-0.1,0.1-0.1,0.1h-1.8c-0.1,0-0.2-0.1-0.2-0.2v-3.4
			c0-0.1,0.1-0.2,0.2-0.2h2.7c0.1,0,0.1,0,0.1,0.1l1.1,1.7c0.1,0.1,0.3,0.1,0.3-0.1V76c0-0.1-0.1-0.2-0.2-0.2H16.1z M28.7,75.8
			c-0.1,0-0.2,0.2-0.1,0.3l0.6,0.5c0,0,0,0.1,0,0.1v8.2c0,0,0,0.1,0,0.1l-0.6,0.5c-0.1,0.1,0,0.3,0.1,0.3h3.3c0.1,0,0.2-0.2,0.1-0.3
			L31.6,85c0,0,0-0.1,0-0.1v-8.2c0-0.1,0.1-0.2,0.2-0.2h1c1.2,0,1.9,0.7,1.9,1.9c0,1-0.5,1.9-2.2,2.2c-0.1,0-0.2,0.1-0.1,0.2
			c1.8,3.6,3,5.2,6.3,5c0.1,0,0.2-0.2,0.1-0.2c-0.8-0.5-2.7-2-3.8-4.7c0-0.1,0-0.2,0.1-0.2c1.2-0.5,2-1.3,2-2.5c0-1.7-1.7-2.5-4-2.5
			H28.7z M42.8,75.8c-0.1,0-0.2,0.2-0.1,0.3l0.6,0.5c0,0,0,0.1,0,0.1v8.2c0,0,0,0.1,0,0.1l-0.6,0.5c-0.1,0.1,0,0.3,0.1,0.3h3.3
			c0.1,0,0.2-0.2,0.1-0.3L45.7,85c0,0,0-0.1,0-0.1v-8.2c0,0,0-0.1,0-0.1l0.6-0.5c0.1-0.1,0-0.3-0.1-0.3H42.8z M92.4,75.8
			c-0.1,0-0.2,0.2-0.1,0.3l0.6,0.5c0,0,0,0.1,0,0.1v8.2c0,0,0,0.1,0,0.1l-0.6,0.5c-0.1,0.1,0,0.3,0.1,0.3h7.5c0.1,0,0.2-0.1,0.2-0.2
			v-0.6l0,0v-1.6c0-0.2-0.2-0.2-0.3-0.1L98.6,85c0,0-0.1,0.1-0.1,0.1h-3.1c-0.1,0-0.2-0.1-0.2-0.2v-3.7c0-0.1,0.1-0.2,0.2-0.2h1.8
			c0,0,0.1,0,0.1,0.1l0.8,0.9c0.1,0.1,0.3,0,0.3-0.1v-2.6c0-0.1-0.2-0.2-0.3-0.1l-0.8,1c0,0-0.1,0.1-0.1,0.1h-1.8
			c-0.1,0-0.2-0.1-0.2-0.2v-3.4c0-0.1,0.1-0.2,0.2-0.2h2.7c0.1,0,0.1,0,0.1,0.1l1.1,1.7c0.1,0.1,0.3,0.1,0.3-0.1V76
			c0-0.1-0.1-0.2-0.2-0.2H92.4z M77.6,80.9c0,3.2,2.4,5.1,5.6,5.1c0.9,0,2-0.2,2.9-0.6c0,0,0.1,0,0.1,0l0.6,0.4c0.1,0,0.2,0,0.2-0.1
			v-4.6c0-0.1-0.1-0.1-0.1-0.1h-3.7c-0.1,0-0.2,0.2-0.1,0.2l1.8,1c0,0,0.1,0.1,0.1,0.1v2.2c0,0.1,0,0.1-0.1,0.1
			c-0.5,0.2-1,0.2-1.3,0.2c-2.1,0-3.5-1.8-3.5-4.4c0-2.6,1.5-4,3.6-4c0.4,0,0.9,0.1,1.4,0.2c0,0,0.1,0,0.1,0.1l1.4,2
			c0.1,0.1,0.2,0.1,0.2-0.1v-2.8c0-0.1-0.1-0.2-0.2-0.1L85.9,76c0,0-0.1,0-0.1,0c-0.8-0.3-1.7-0.4-2.5-0.4
			C80.3,75.7,77.6,77.4,77.6,80.9 M60.2,75.5l-1.1,0.2c0,0,0,0,0,0h-6.8c0,0,0,0,0,0l-1.1-0.2c-0.1,0-0.2,0.1-0.2,0.2v2.5
			c0,0.2,0.2,0.2,0.3,0.1l1.1-1.7c0,0,0.1-0.1,0.1-0.1h1.8c0.1,0,0.2,0.1,0.2,0.2v8.2c0,0,0,0.1,0,0.1L54,85.6
			c-0.1,0.1,0,0.3,0.1,0.3h3.3c0.1,0,0.2-0.2,0.1-0.3L57,85.1c0,0,0-0.1,0-0.1v-8.2c0-0.1,0.1-0.2,0.2-0.2h1.8c0.1,0,0.1,0,0.1,0.1
			l1.1,1.7c0.1,0.1,0.3,0.1,0.3-0.1v-2.5C60.4,75.6,60.4,75.5,60.2,75.5C60.3,75.5,60.3,75.5,60.2,75.5 M66.5,81.5l1.1-2.5
			c0.1-0.1,0.2-0.1,0.3,0l1.1,2.5c0,0.1,0,0.2-0.1,0.2h-2.2C66.5,81.8,66.5,81.6,66.5,81.5 M68.3,75.5l-4.6,10.1
			c0,0.1,0,0.2,0.1,0.2H66c0.2,0,0.2-0.2,0.1-0.3l-0.9-0.7c-0.1,0-0.1-0.1-0.1-0.2l0.9-2.1c0-0.1,0.1-0.1,0.1-0.1h3.2
			c0.1,0,0.1,0,0.1,0.1l1,2.3c0,0.1,0,0.1,0,0.2l-0.5,0.5c-0.1,0.1,0,0.3,0.1,0.3h3.6c0.1,0,0.2-0.2,0.1-0.3l-0.6-0.5c0,0,0,0,0-0.1
			l-4.4-9.6c0-0.1-0.1-0.1-0.2-0.1C68.5,75.4,68.4,75.4,68.3,75.5 M37.1,66.1C37.1,66.1,37,66.1,37.1,66.1L37,67.2
			c0,0.1,0,0.1,0.1,0.1h1.4c0.1,0,0.1,0,0.1,0.1v4c0,0.1,0,0.1,0.1,0.1h1.1c0.1,0,0.1,0,0.1-0.1v-4c0-0.1,0-0.1,0.1-0.1h1.4
			c0.1,0,0.1,0,0.1-0.1v-1c0-0.1,0-0.1-0.1-0.1H37.1z M51,66.1C50.9,66.1,50.9,66.1,51,66.1l-0.1,2c0,0.1,0,0.1-0.1,0.1H49
			c-0.1,0-0.1,0-0.1-0.1v-1.9c0-0.1,0-0.1-0.1-0.1h-1.1c-0.1,0-0.1,0-0.1,0.1v5.3c0,0.1,0,0.1,0.1,0.1h1.1c0.1,0,0.1,0,0.1-0.1v-1.9
			c0-0.1,0-0.1,0.1-0.1h1.8c0.1,0,0.1,0,0.1,0.1v1.9c0,0.1,0,0.1,0.1,0.1h1.1c0.1,0,0.1,0,0.1-0.1v-5.3c0-0.1,0-0.1-0.1-0.1H51z
			 M58.6,66.1C58.6,66.1,58.5,66.1,58.6,66.1l-0.1,5.4c0,0.1,0,0.1,0.1,0.1h4c0.1,0,0.1,0,0.1-0.1v-1c0-0.1,0-0.1-0.1-0.1h-2.7
			c-0.1,0-0.1,0-0.1-0.1v-0.8c0-0.1,0-0.1,0.1-0.1h2.3c0.1,0,0.1,0,0.1-0.1v-1c0-0.1,0-0.1-0.1-0.1h-2.3c-0.1,0-0.1,0-0.1-0.1v-0.7
			c0-0.1,0-0.1,0.1-0.1h2.7c0.1,0,0.1,0,0.1-0.1v-1c0-0.1,0-0.1-0.1-0.1H58.6z"/>
	</defs>
	<clipPath id="SVGID_5_">
		<use xlink:href="#SVGID_4_"  overflow="visible"/>
	</clipPath>
	<linearGradient id="SVGID_6_" gradientUnits="userSpaceOnUse" x1="-50.3386" y1="74.799" x2="89.7638" y2="30.395">
		<stop  offset="6.877627e-02" style="stop-color:#C58A63"/>
		<stop  offset="1" style="stop-color:#603522"/>
	</linearGradient>
	<rect clip-path="url(#SVGID_5_)" fill="url(#SVGID_6_)" width="100" height="86"/>
</g>
</svg>
