<?xml version="1.0" encoding="utf-8"?>
<!-- Generator: Adobe Illustrator 24.3.0, SVG Export Plug-In . SVG Version: 6.00 Build 0)  -->
<svg version="1.1" id="Layer_1" xmlns="http://www.w3.org/2000/svg" xmlns:xlink="http://www.w3.org/1999/xlink" x="0px" y="0px"
	 viewBox="0 0 800 800" enable-background="new 0 0 800 800" xml:space="preserve">
<g>
	<path fill="#B6BCAD" d="M547.5,315.5l63-63l63,63v105.2h-31.7v-74.1c0-17.3-14-31.3-31.3-31.3l0,0c-17.3,0-31.3,14-31.3,31.3v74.1
		h-31.7L547.5,315.5L547.5,315.5z"/>
	<rect x="295" y="736.8" fill="#B6BCAD" width="42.1" height="63.1"/>
	<rect x="336.9" y="673.6" fill="#B6BCAD" width="42.1" height="63.1"/>
	<rect x="252.7" y="673.6" fill="#B6BCAD" width="42.1" height="63.1"/>
	<rect x="379" y="0" fill="#B6BCAD" width="42" height="63"/>
	<rect x="379" y="189.3" fill="#B6BCAD" width="42" height="63"/>
	<rect x="379" y="610" fill="#B6BCAD" width="42" height="63"/>
	<rect x="379" y="736.8" fill="#B6BCAD" width="42" height="63"/>
	<path fill="#B6BCAD" d="M484.3,252.4l-63.1-63.1h126.2L484.3,252.4z"/>
	<path fill="#B6BCAD" d="M452.9,378.5h62.7v-31.9c0-17.3-14-31.3-31.3-31.3h0c-17.3,0-31.3,14-31.3,31.3V378.5z"/>
	<ellipse fill="#B6BCAD" cx="484.3" cy="157.8" rx="31.6" ry="31.5"/>
	<rect x="463.2" y="0.2" fill="#B6BCAD" width="42" height="63"/>
	<polygon fill="#B6BCAD" points="484.4,252.4 484.3,252.5 484.2,252.4 	"/>
	<polygon fill="#B6BCAD" points="421.3,252.4 484.2,252.4 484.3,252.5 421.3,315.4 	"/>
	<rect x="421.3" y="63.2" fill="#B6BCAD" width="42" height="63"/>
	<polygon fill="#B6BCAD" points="547.3,252.4 547.3,315.4 484.3,252.5 484.4,252.4 	"/>
	<rect x="505.4" y="63.2" fill="#B6BCAD" width="42" height="63"/>
	<path fill="#B6BCAD" d="M252.6,63.1h126.2l-63.1,63.1L252.6,63.1z"/>
	<ellipse fill="#B6BCAD" cx="315.7" cy="31.6" rx="31.6" ry="31.5"/>
	<path fill="#B6BCAD" d="M252.7,189.3h126.2l-63.1,63.1L252.7,189.3z"/>
	
		<rect x="294.7" y="315.5" transform="matrix(-1 4.487509e-11 -4.487509e-11 -1 631.3386 693.9)" fill="#B6BCAD" width="42" height="63"/>
	<rect x="336.8" y="252.4" fill="#B6BCAD" width="42" height="63"/>
	<rect x="379.3" y="315.4" fill="#B6BCAD" width="42" height="168.4"/>
	<polygon fill="#B6BCAD" points="252.7,126.2 315.6,126.2 315.7,126.3 252.7,189.3 	"/>
	<polygon fill="#B6BCAD" points="378.7,126.2 378.7,189.3 315.7,126.3 315.8,126.2 	"/>
	<path fill="#B6BCAD" d="M421.1,736.1h126.2l-63.1,63.1L421.1,736.1z"/>
	<ellipse fill="#B6BCAD" cx="315.8" cy="578.5" rx="31.6" ry="31.5"/>
	<rect x="294.9" y="420.9" fill="#B6BCAD" width="42" height="63"/>
	<polygon fill="#B6BCAD" points="315.7,673.1 315.8,673.2 315.9,673.1 	"/>
	<rect x="336.7" y="483.9" fill="#B6BCAD" width="42" height="63"/>
	<rect x="252.7" y="252.4" fill="#B6BCAD" width="42" height="63"/>
	<rect x="252.6" y="483.9" fill="#B6BCAD" width="42" height="63"/>
	<path fill="#B6BCAD" d="M768.2,799.2h-62.7v-31.9c0-17.3,14-31.3,31.3-31.3h0c17.3,0,31.3,14,31.3,31.3V799.2z"/>
	<polygon fill="#B6BCAD" points="799.9,673.1 737,673.1 736.9,673.2 799.9,736.2 	"/>
	<polygon fill="#B6BCAD" points="673.9,673.1 673.9,736.2 736.9,673.2 736.8,673.1 	"/>
	<path fill="#B6BCAD" d="M484.3,546.9l-63.1-63.1h126.2L484.3,546.9z"/>
	<ellipse fill="#B6BCAD" cx="484.3" cy="452.3" rx="31.6" ry="31.5"/>
	<path fill="#B6BCAD" d="M484.2,673.1L421.1,610h126.2L484.2,673.1z"/>
	<rect x="505.3" y="673.1" fill="#B6BCAD" width="42" height="63"/>
	<rect x="421.2" y="673.1" fill="#B6BCAD" width="42" height="63"/>
	<polygon fill="#B6BCAD" points="547.3,546.9 484.4,546.9 484.3,547 547.3,610 	"/>
	<polygon fill="#B6BCAD" points="421.3,546.9 421.3,610 484.3,547 484.2,546.9 	"/>
	<g>
		<path fill="#B6BCAD" d="M126.5,0l0,63.1L189.7,0L126.5,0z"/>
		<path fill="#B6BCAD" d="M189.5,0l63.2,63.1l0-63.1L189.5,0z"/>
		<path fill="#B6BCAD" d="M126.4,126.2v126.3h126.4v-63.1c-32.8,4.3-58.9,30.3-63.2,63.1c-4.3-32.8-30.3-58.9-63.2-63.1
			c32.8-4.3,58.9-30.3,63.2-63.1c4.3,32.8,30.3,58.9,63.2,63.1v-63.1H126.4z"/>
		<path fill="#B6BCAD" d="M0.1,189.4h126.3l-63.2,63.1L0.1,189.4z"/>
		<ellipse fill="#B6BCAD" cx="63.2" cy="157.8" rx="31.6" ry="31.6"/>
		<ellipse fill="#B6BCAD" cx="189.7" cy="94.7" rx="31.6" ry="31.6"/>
		<rect x="84.2" y="252.5" fill="#B6BCAD" width="42.1" height="63.1"/>
		<rect x="0" y="252.5" fill="#B6BCAD" width="42.1" height="63.1"/>
		<path fill="#B6BCAD" d="M63.2,0L0.1,63.1v63.1h31.8V94.4C31.8,77.1,45.9,63,63.2,63c17.3,0,31.4,14,31.4,31.4v31.8h31.8V63.1h0
			L63.2,0z"/>
		<path fill="#B6BCAD" d="M31.8,800h62.8v-31.9c0-17.3-14.1-31.4-31.4-31.4h0c-17.3,0-31.4,14.1-31.4,31.4V800z"/>
		<path fill="#B6BCAD" d="M126.5,421.2l0,63.1l63.2-63.1H126.5z"/>
		<path fill="#B6BCAD" d="M189.4,421.2l63.2,63.1l0-63.1H189.4z"/>
		<path fill="#B6BCAD" d="M220.9,547.4v-31.8c0-17.3-14.1-31.4-31.4-31.4s-31.4,14-31.4,31.4v31.8h-31.8v126.3h126.4v-63.1
			c-32.8,4.3-58.9,30.3-63.2,63.1c-4.3-32.8-30.3-58.9-63.2-63.1c32.8-4.3,58.9-30.3,63.2-63.1c4.3,32.8,30.3,58.9,63.2,63.1v-63.1
			H220.9z"/>
		<path fill="#B6BCAD" d="M0,610.6h126.3l-63.2,63.1L0,610.6z"/>
		<ellipse fill="#B6BCAD" cx="63.2" cy="579" rx="31.6" ry="31.6"/>
		<path fill="#B6BCAD" d="M126.4,736.8l63.2-63.1l63.2,63.1v63.1h-31.8V768c0-17.3-14.1-31.4-31.4-31.4l0,0
			c-17.3,0-31.4,14-31.4,31.4v31.8h-31.8L126.4,736.8L126.4,736.8z"/>
		<path fill="#B6BCAD" d="M63.2,421.2L0,484.3v63.1h31.8v-31.8c0-17.3,14.1-31.4,31.4-31.4c17.3,0,31.4,14,31.4,31.4v31.8h31.8
			v-63.1h0L63.2,421.2z"/>
		<polygon fill="#B6BCAD" points="63.3,673.7 63.2,673.8 63.1,673.7 		"/>
		<polygon fill="#B6BCAD" points="0.1,673.7 63.1,673.7 63.2,673.8 0.1,736.9 		"/>
		<polygon fill="#B6BCAD" points="126.2,673.7 126.2,736.9 63.2,673.8 63.3,673.7 		"/>
		<path fill="#B6BCAD" d="M0.1,358.2h126.3l-63.2,63.1L0.1,358.2z"/>
		<g>
			<polygon fill="#B6BCAD" points="177.4,387.1 144.7,402.7 160.3,369.9 126.5,357.9 160.3,345.9 144.7,313.2 177.4,328.7 
				189.6,294.6 201.8,328.7 234.5,313.2 218.9,345.9 252.8,357.9 252.8,315.6 252.8,315.6 189.6,252.4 126.4,315.6 126.4,421.2 
				158.2,421.2 189.6,421.2 			"/>
			<polygon fill="#B6BCAD" points="218.9,369.9 234.5,402.7 201.8,387.1 189.6,421.2 221,421.2 252.8,421.2 252.8,357.9 			"/>
		</g>
	</g>
	<g>
		<path fill="#B6BCAD" d="M673.8,189.3H800l-63.1,63.1L673.8,189.3z"/>
		<ellipse fill="#B6BCAD" cx="736.9" cy="157.8" rx="31.6" ry="31.5"/>
		<path fill="#B6BCAD" d="M736.9,0.1l-63.1,63.1v63h31.8V94.4c0-17.3,14-31.3,31.4-31.3c17.3,0,31.4,14,31.4,31.3v31.8H800v-63h0
			L736.9,0.1z"/>
		<path fill="#B6BCAD" d="M610.5,0.1l63.1,63.1l0-63.1L610.5,0.1z"/>
		<path fill="#B6BCAD" d="M547.5,0.1l0,63.1l63.1-63.1L547.5,0.1z"/>
		<path fill="#B6BCAD" d="M579.2,126.2V94.4c0-17.3,14-31.3,31.4-31.3c17.3,0,31.4,14,31.4,31.3v31.8h31.8v126.2H547.4v-63.1
			c32.8,4.3,58.9,30.3,63.1,63.1c4.3-32.8,30.3-58.8,63.1-63.1c-32.8-4.3-58.9-30.3-63.1-63.1c-4.3,32.8-30.3,58.8-63.1,63.1v-63.1
			H579.2z"/>
	</g>
	<g>
		<path fill="#B6BCAD" d="M673.8,609.9H800L736.9,673L673.8,609.9z"/>
		<ellipse fill="#B6BCAD" cx="736.9" cy="578.4" rx="31.6" ry="31.5"/>
		<path fill="#B6BCAD" d="M736.9,420.8l-63.1,63.1v63h31.8v-31.8c0-17.3,14-31.3,31.4-31.3c17.3,0,31.4,14,31.4,31.3v31.8H800v-63h0
			L736.9,420.8z"/>
		<path fill="#B6BCAD" d="M610.5,420.8l63.1,63.1l0-63.1L610.5,420.8z"/>
		<path fill="#B6BCAD" d="M547.5,420.8l0,63.1l63.1-63.1L547.5,420.8z"/>
		<path fill="#B6BCAD" d="M579.2,546.8v-31.8c0-17.3,14-31.3,31.4-31.3c17.3,0,31.4,14,31.4,31.3v31.8h31.8V673H547.4v-63.1
			c32.8,4.3,58.9,30.3,63.1,63.1c4.3-32.8,30.3-58.8,63.1-63.1c-32.8-4.3-58.9-30.3-63.1-63.1c-4.3,32.8-30.3,58.8-63.1,63.1v-63.1
			H579.2z"/>
	</g>
	<path fill="#B6BCAD" d="M705.5,378.5h62.7v-31.9c0-17.3-14-31.3-31.3-31.3h0c-17.3,0-31.3,14-31.3,31.3V378.5z"/>
	<polygon fill="#B6BCAD" points="673.9,252.4 736.8,252.4 736.9,252.5 673.9,315.4 	"/>
	<polygon fill="#B6BCAD" points="799.9,252.4 799.9,315.4 736.9,252.5 737,252.4 	"/>
	<path fill="#B6BCAD" d="M547.5,736h126.2l-63.1,63.1L547.5,736z"/>
	<ellipse fill="#B6BCAD" cx="610.7" cy="704.5" rx="31.6" ry="31.5"/>
</g>
</svg>
