<?xml version="1.0" encoding="utf-8"?>
<!-- Generator: Adobe Illustrator 24.3.0, SVG Export Plug-In . SVG Version: 6.00 Build 0)  -->
<svg version="1.1" id="Layer_1" xmlns="http://www.w3.org/2000/svg" xmlns:xlink="http://www.w3.org/1999/xlink" x="0px" y="0px"
	 viewBox="0 0 285 90" enable-background="new 0 0 285 90" xml:space="preserve">
<g>
	<polygon fill="#FFFFFF" points="45,0 22.5,0 45,22.5 	"/>
	
		<ellipse transform="matrix(7.800013e-03 -1 1 7.800013e-03 148.3551 284.3914)" fill="#FFFFFF" cx="217.5" cy="67.4" rx="22.5" ry="22.5"/>
	<path fill="#FFFFFF" d="M22.5,89.9L0,67.4h44.9v0L22.5,45L0,67.4l0-22.5h0V22.5L22.5,0H0v90h44.9V67.5L22.5,89.9z M22.4,90L22.4,90
		L22.4,90L22.4,90z"/>
	<path fill="#FFFFFF" d="M33.7,44.9V33.6c0-6.2-5-11.2-11.2-11.2c-6.2,0-11.2,5-11.2,11.2v11.3h11.1l0,0l0,0H33.7z"/>
	<path fill="#FFFFFF" d="M273.7,33.6c0-6.2-5-11.2-11.2-11.2c-6.2,0-11.2,5-11.2,11.2v11.3H240V22.5L262.5,0h-22.5l0,22.5L217.5,0
		L195,22.5L195,0H180v22.5h-15V0h-15v22.4h-15V0h-21.4c5.6,0.6,10,5.4,10,11.2c0,6.2-5,11.2-11.2,11.2h22.5l-22.5,22.5L89.9,22.4
		h22.5c-6.2,0-11.2-5-11.2-11.2c0-5.8,4.4-10.6,10-11.2H89.9l0,22.5L67.4,0L45,22.5l0,0h0v22.5h45h0h22.4l0,0l0,0h22.4l0,22.5
		L112.4,45L90,67.4v0h45l-22.5,22.5L90,67.5V90h195V44.9h-11.3V33.6z M67.5,44.9c-6.2,0-11.2-5-11.2-11.2c0-6.2,5-11.2,11.2-11.2
		c6.2,0,11.2,5,11.2,11.2C78.7,39.9,73.7,44.9,67.5,44.9z M150,89.9h-15V67.4h15V89.9z M180,22.5h15v22.5h-15V22.5z M150,22.5h15
		v22.5h-15V22.5z M172.5,89.9L172.5,89.9L172.5,89.9L172.5,89.9L150,67.4h22.5c-6.2,0-11.2-5-11.2-11.2c0-6.2,5-11.2,11.2-11.2
		c6.2,0,11.2,5,11.2,11.2c0,6.2-5,11.2-11.2,11.2H195L172.5,89.9L172.5,89.9z M240,89.9h-22.5H195V67.4V44.9h11.3V33.6
		c0-6.2,5-11.2,11.2-11.2c6.2,0,11.2,5,11.2,11.2v11.3H240V89.9z M273.8,56.2c0,6.2-5,11.2-11.2,11.2H285l-22.5,22.5L240,67.4h22.5
		c-6.2,0-11.2-5-11.2-11.2c0-6.2,5-11.2,11.2-11.2S273.8,50,273.8,56.2z"/>
	<path fill="#FFFFFF" d="M89.5,67.4c-11.4-1.7-20.4-10.7-22.1-22.1c-1.7,11.4-10.7,20.4-22.1,22.1c11.4,1.7,20.4,10.7,22.1,22.1
		C69.1,78.1,78.1,69.1,89.5,67.4z"/>
	<polygon fill="#FFFFFF" points="262.5,0 285,22.5 285,22.5 285,0 	"/>
</g>
</svg>
